<?xml version="1.0" standalone="no"?>
<!DOCTYPE svg PUBLIC "-//W3C//DTD SVG 20010904//EN"
 "http://www.w3.org/TR/2001/REC-SVG-20010904/DTD/svg10.dtd">
<svg version="1.0" xmlns="http://www.w3.org/2000/svg"
 width="256.000000pt" height="256.000000pt" viewBox="0 0 256.000000 256.000000"
 preserveAspectRatio="xMidYMid meet">
<metadata>
Created by potrace 1.11, written by Peter Selinger 2001-2013
</metadata>
<g transform="translate(0.000000,256.000000) scale(0.100000,-0.100000)"
fill="#000000" stroke="none">
<path d="M1188 2555 c-2 -2 -22 -7 -44 -10 -21 -4 -81 -27 -133 -52 -176 -84
-313 -255 -356 -443 -31 -140 -4 -313 72 -443 35 -60 181 -217 203 -217 25 0
6 -19 -36 -35 -69 -26 -210 -125 -283 -197 -129 -129 -218 -280 -261 -448 -7
-25 -15 -54 -17 -65 -3 -11 -8 -148 -10 -305 l-5 -285 26 -28 25 -27 911 0
911 0 26 28 25 27 -5 290 c-4 247 -8 300 -24 360 -48 170 -138 327 -260 449
-72 72 -214 172 -289 203 -24 10 -44 20 -44 23 0 3 16 16 36 29 58 40 149 147
188 221 54 102 77 204 72 314 -8 166 -66 296 -186 417 -98 99 -199 157 -321
185 -32 7 -215 15 -221 9z m193 -165 c177 -34 322 -172 363 -347 40 -175 -4
-345 -123 -464 -91 -91 -205 -137 -341 -137 -136 0 -250 46 -341 137 -89 89
-130 185 -135 316 -4 100 8 162 46 242 89 191 308 295 531 253z m94 -1133
c182 -45 338 -148 452 -297 58 -76 121 -226 141 -338 5 -29 10 -145 11 -257
l2 -205 -801 0 -801 0 1 201 c2 266 21 365 98 509 110 205 315 353 547 395 87
16 270 12 350 -8z"/>
</g>
</svg>
