<?xml version="1.0" standalone="no"?>
<!DOCTYPE svg PUBLIC "-//W3C//DTD SVG 20010904//EN"
 "http://www.w3.org/TR/2001/REC-SVG-20010904/DTD/svg10.dtd">
<svg version="1.0" xmlns="http://www.w3.org/2000/svg"
 width="256.000000pt" height="256.000000pt" viewBox="0 0 256.000000 256.000000"
 preserveAspectRatio="xMidYMid meet">
<metadata>
Created by potrace 1.11, written by Peter Selinger 2001-2013
</metadata>
<g transform="translate(0.000000,256.000000) scale(0.100000,-0.100000)"
fill="#000000" stroke="none">
<path d="M24 2533 l-24 -26 2 -1234 3 -1235 24 -19 c23 -18 57 -19 1253 -19
l1229 0 24 26 25 27 0 573 0 574 -80 0 -80 0 0 -520 0 -520 -1120 0 -1120 0 0
1120 0 1120 560 0 560 0 0 80 0 80 -615 0 -616 0 -25 -27z"/>
<path d="M1888 1843 l-528 -528 -208 208 c-114 114 -211 207 -215 207 -10 0
-107 -97 -107 -107 0 -5 109 -117 243 -251 212 -212 247 -243 281 -249 l37 -6
570 569 c313 313 569 572 569 577 0 10 -97 107 -107 107 -4 0 -245 -237 -535
-527z"/>
</g>
</svg>
