<?xml version="1.0" standalone="no"?>
<!DOCTYPE svg PUBLIC "-//W3C//DTD SVG 20010904//EN"
 "http://www.w3.org/TR/2001/REC-SVG-20010904/DTD/svg10.dtd">
<svg version="1.0" xmlns="http://www.w3.org/2000/svg"
 width="256.000000pt" height="256.000000pt" viewBox="0 0 256.000000 256.000000"
 preserveAspectRatio="xMidYMid meet">
<metadata>
Created by potrace 1.11, written by Peter Selinger 2001-2013
</metadata>
<g transform="translate(0.000000,256.000000) scale(0.100000,-0.100000)"
fill="#000000" stroke="none">
<path d="M1200 2400 c0 -120 -3 -162 -12 -165 -7 -2 -33 -6 -58 -9 -161 -19
-371 -125 -508 -255 -64 -62 -139 -159 -186 -243 -38 -69 -93 -224 -102 -288
-3 -23 -7 -49 -8 -58 -3 -15 -22 -17 -164 -20 l-162 -2 0 -80 0 -80 162 -2
163 -3 2 -33 c7 -85 56 -234 108 -328 103 -185 253 -328 438 -417 89 -43 214
-82 287 -90 l35 -3 3 -162 2 -162 80 0 80 0 2 162 c3 152 4 161 23 164 97 13
111 17 221 55 296 103 554 403 614 714 7 33 14 70 16 83 4 22 6 22 164 22
l160 0 0 80 0 80 -160 0 c-120 0 -161 3 -164 13 -2 6 -11 51 -20 99 -50 262
-236 511 -488 652 -77 43 -228 94 -306 104 l-57 7 -3 163 -2 162 -80 0 -80 0
0 -160z m0 -482 l0 -158 80 0 80 0 0 159 c0 146 1 159 18 156 9 -2 46 -9 82
-16 142 -27 302 -116 404 -227 77 -82 120 -151 168 -269 15 -38 46 -186 41
-195 -2 -5 -74 -8 -159 -8 l-154 0 0 -80 0 -80 158 0 159 0 -9 -57 c-19 -127
-80 -267 -159 -365 -129 -160 -323 -268 -519 -290 l-25 -3 -3 158 -3 157 -79
0 -80 0 0 -158 0 -159 -62 10 c-140 21 -313 106 -413 203 -120 117 -201 268
-229 428 l-13 76 158 0 159 0 0 80 0 80 -160 0 -160 0 4 23 c3 12 10 46 15 75
59 297 308 543 614 605 34 7 68 13 75 13 9 1 12 -37 12 -158z"/>
<path d="M1225 1426 c-17 -7 -45 -29 -62 -49 -59 -68 -53 -148 17 -211 69 -63
149 -57 214 14 60 67 58 146 -7 208 -53 51 -104 63 -162 38z"/>
</g>
</svg>
