<?xml version="1.0" standalone="no"?>
<!DOCTYPE svg PUBLIC "-//W3C//DTD SVG 20010904//EN"
 "http://www.w3.org/TR/2001/REC-SVG-20010904/DTD/svg10.dtd">
<svg version="1.0" xmlns="http://www.w3.org/2000/svg"
 width="256.000000pt" height="256.000000pt" viewBox="0 0 256.000000 256.000000"
 preserveAspectRatio="xMidYMid meet">
<metadata>
Created by potrace 1.11, written by Peter Selinger 2001-2013
</metadata>
<g transform="translate(0.000000,256.000000) scale(0.100000,-0.100000)"
fill="#000000" stroke="none">
<path d="M20 2540 c-19 -19 -20 -33 -20 -540 0 -507 1 -521 20 -540 19 -19 33
-20 540 -20 507 0 521 1 540 20 19 19 20 33 20 540 0 507 -1 521 -20 540 -19
19 -33 20 -540 20 -507 0 -521 -1 -540 -20z m940 -540 l0 -400 -400 0 -400 0
0 400 0 400 400 0 400 0 0 -400z"/>
<path d="M1460 2540 c-19 -19 -20 -33 -20 -540 0 -507 1 -521 20 -540 19 -19
33 -20 540 -20 507 0 521 1 540 20 19 19 20 33 20 540 0 507 -1 521 -20 540
-19 19 -33 20 -540 20 -507 0 -521 -1 -540 -20z m940 -540 l0 -400 -400 0
-400 0 0 400 0 400 400 0 400 0 0 -400z"/>
<path d="M20 1100 c-19 -19 -20 -33 -20 -540 0 -507 1 -521 20 -540 19 -19 33
-20 540 -20 507 0 521 1 540 20 19 19 20 33 20 540 0 507 -1 521 -20 540 -19
19 -33 20 -540 20 -507 0 -521 -1 -540 -20z m940 -540 l0 -400 -400 0 -400 0
0 400 0 400 400 0 400 0 0 -400z"/>
<path d="M1460 1100 c-19 -19 -20 -33 -20 -540 0 -507 1 -521 20 -540 19 -19
33 -20 540 -20 507 0 521 1 540 20 19 19 20 33 20 540 0 507 -1 521 -20 540
-19 19 -33 20 -540 20 -507 0 -521 -1 -540 -20z m940 -540 l0 -400 -400 0
-400 0 0 400 0 400 400 0 400 0 0 -400z"/>
</g>
</svg>
