<?xml version="1.0" standalone="no"?>
<!DOCTYPE svg PUBLIC "-//W3C//DTD SVG 20010904//EN"
 "http://www.w3.org/TR/2001/REC-SVG-20010904/DTD/svg10.dtd">
<svg version="1.0" xmlns="http://www.w3.org/2000/svg"
 width="256.000000pt" height="256.000000pt" viewBox="0 0 256.000000 256.000000"
 preserveAspectRatio="xMidYMid meet">
<metadata>
Created by potrace 1.11, written by Peter Selinger 2001-2013
</metadata>
<g transform="translate(0.000000,256.000000) scale(0.100000,-0.100000)"
fill="#000000" stroke="none">
<path d="M425 2534 l-25 -27 2 -1233 c3 -1367 -3 -1259 69 -1270 33 -6 51 8
417 300 210 168 386 306 392 306 6 0 182 -137 391 -305 403 -323 407 -325 459
-285 l25 19 3 1234 c2 1205 2 1235 -17 1258 l-19 24 -836 3 -837 2 -24 -26z
m1575 -1210 c0 -860 -3 -1074 -12 -1067 -32 25 -365 290 -383 305 -175 145
-301 238 -325 238 -27 0 -56 -22 -524 -397 -88 -71 -167 -134 -178 -141 -17
-13 -18 19 -18 1062 l0 1076 720 0 720 0 0 -1076z"/>
</g>
</svg>
