<?xml version="1.0" standalone="no"?>
<!DOCTYPE svg PUBLIC "-//W3C//DTD SVG 20010904//EN"
 "http://www.w3.org/TR/2001/REC-SVG-20010904/DTD/svg10.dtd">
<svg version="1.0" xmlns="http://www.w3.org/2000/svg"
 width="256.000000pt" height="256.000000pt" viewBox="0 0 256.000000 256.000000"
 preserveAspectRatio="xMidYMid meet">
<metadata>
Created by potrace 1.11, written by Peter Selinger 2001-2013
</metadata>
<g transform="translate(0.000000,256.000000) scale(0.100000,-0.100000)"
fill="#000000" stroke="none">
<path d="M1228 2457 c-30 -28 -34 -50 -18 -91 13 -36 33 -43 142 -50 208 -14
408 -89 573 -216 52 -40 166 -162 207 -220 134 -195 190 -384 183 -625 -3
-139 -4 -147 -37 -269 -19 -70 -116 -281 -136 -295 -4 -3 -16 -19 -26 -34 -33
-53 -130 -149 -210 -209 -171 -128 -396 -206 -599 -207 -49 -1 -62 -5 -82 -27
-30 -32 -32 -73 -6 -105 16 -20 29 -24 86 -26 131 -4 336 44 481 113 228 108
456 334 570 566 47 93 94 236 110 333 16 101 12 314 -9 415 -47 227 -162 436
-336 611 -217 216 -480 338 -770 355 -93 6 -97 5 -123 -19z"/>
<path d="M1226 2135 c-29 -31 -33 -70 -11 -102 16 -23 36 -29 136 -38 223 -20
430 -147 542 -332 108 -177 135 -413 71 -613 -72 -224 -263 -404 -494 -466
-85 -23 -260 -27 -342 -8 -328 75 -541 324 -564 659 l-7 90 105 -102 c89 -87
110 -103 137 -103 41 0 81 41 81 84 0 26 -25 55 -183 213 -166 166 -186 183
-217 183 -31 0 -51 -17 -217 -183 -159 -158 -183 -187 -183 -214 0 -42 28 -72
73 -80 36 -6 39 -4 142 98 l105 103 1 -55 c5 -231 93 -434 264 -604 169 -169
361 -254 590 -260 253 -7 463 80 650 271 94 95 163 205 204 324 39 114 43 136
46 273 2 97 -2 133 -22 209 -96 372 -423 649 -798 675 -82 6 -84 5 -109 -22z"/>
<path d="M1225 1814 c-20 -22 -25 -37 -25 -80 0 -47 -3 -54 -19 -54 -35 0
-106 -37 -144 -75 -56 -56 -71 -91 -72 -165 0 -71 21 -119 79 -173 55 -53 82
-61 211 -65 66 -2 132 -8 147 -13 39 -16 52 -85 22 -124 -14 -18 -29 -20 -174
-23 -151 -3 -160 -4 -184 -27 -31 -29 -34 -73 -7 -106 14 -18 31 -23 80 -27
l61 -4 0 -55 c0 -46 4 -58 26 -78 36 -33 78 -33 109 1 20 22 25 38 25 80 l0
52 39 7 c55 9 124 57 160 111 70 106 45 227 -63 313 -51 41 -92 51 -211 51
-55 0 -110 3 -122 6 -50 14 -56 126 -7 144 14 6 90 10 168 10 138 0 144 1 170
25 34 31 34 73 1 109 -20 22 -32 26 -78 26 l-55 0 -4 61 c-4 49 -9 66 -27 80
-34 27 -77 24 -106 -7z"/>
</g>
</svg>
