<?xml version="1.0" standalone="no"?>
<!DOCTYPE svg PUBLIC "-//W3C//DTD SVG 20010904//EN"
 "http://www.w3.org/TR/2001/REC-SVG-20010904/DTD/svg10.dtd">
<svg version="1.0" xmlns="http://www.w3.org/2000/svg"
 width="512.000000pt" height="512.000000pt" viewBox="0 0 512.000000 512.000000"
 preserveAspectRatio="xMidYMid meet">
<metadata>
Created by potrace 1.11, written by Peter Selinger 2001-2013
</metadata>
<g transform="translate(0.000000,512.000000) scale(0.100000,-0.100000)"
fill="#000000" stroke="none">
<path d="M1440 3062 c-110 -37 -174 -86 -213 -165 -49 -100 -35 -204 39 -286
51 -56 111 -93 231 -141 99 -39 143 -81 143 -136 0 -81 -70 -136 -174 -137
-100 -1 -166 49 -166 124 l0 39 -106 0 -107 0 6 -54 c10 -104 73 -188 176
-238 64 -32 70 -33 196 -33 125 0 133 1 195 31 36 17 79 43 97 58 42 35 81
117 89 187 17 148 -79 258 -297 340 -90 35 -149 83 -149 122 0 75 83 137 183
137 91 0 137 -37 137 -110 l0 -30 106 0 107 0 -6 49 c-12 100 -79 190 -172
233 -69 31 -235 36 -315 10z"/>
<path d="M2096 2903 c-15 -93 -55 -321 -87 -508 -32 -187 -59 -343 -59 -347 0
-5 46 -8 103 -8 l103 0 23 138 c13 75 38 247 56 382 17 135 34 236 37 225 4
-11 35 -183 70 -382 l63 -363 71 0 72 0 193 369 c107 204 195 369 196 368 1
-1 -19 -95 -43 -207 -25 -113 -58 -278 -73 -367 l-28 -163 103 0 102 0 6 28
c8 40 48 263 111 627 30 176 58 332 61 348 l6 27 -140 0 -140 0 -188 -365
c-104 -201 -191 -365 -194 -365 -3 0 -32 158 -64 352 -32 194 -60 358 -63 365
-4 10 -38 13 -137 13 l-131 0 -29 -167z"/>
<path d="M3622 2998 c-22 -40 -129 -239 -237 -443 -109 -203 -215 -403 -237
-442 l-39 -73 115 0 116 0 52 105 53 105 181 0 181 0 13 -94 c7 -51 15 -99 19
-105 5 -8 40 -11 108 -9 l100 3 -68 360 c-38 198 -81 428 -97 510 l-28 150
-96 3 -96 3 -40 -73z m128 -388 c11 -80 23 -155 25 -167 5 -23 5 -23 -120 -23
-69 0 -125 2 -125 5 0 3 42 88 92 190 76 151 94 181 100 163 4 -13 16 -88 28
-168z"/>
</g>
</svg>
