<?xml version="1.0" standalone="no"?>
<!DOCTYPE svg PUBLIC "-//W3C//DTD SVG 20010904//EN"
 "http://www.w3.org/TR/2001/REC-SVG-20010904/DTD/svg10.dtd">
<svg version="1.0" xmlns="http://www.w3.org/2000/svg"
 width="256.000000pt" height="256.000000pt" viewBox="0 0 256.000000 256.000000"
 preserveAspectRatio="xMidYMid meet">
<metadata>
Created by potrace 1.11, written by Peter Selinger 2001-2013
</metadata>
<g transform="translate(0.000000,256.000000) scale(0.100000,-0.100000)"
fill="#000000" stroke="none">
<path d="M155 2541 c-48 -21 -106 -76 -132 -123 -17 -31 -18 -88 -18 -1138 l0
-1105 24 -40 c28 -46 73 -89 116 -113 27 -16 123 -17 1136 -17 l1105 0 45 29
c49 33 82 67 107 111 16 28 17 116 17 1135 0 1229 6 1125 -69 1202 -77 80 32
73 -1196 75 -1033 1 -1097 1 -1135 -16z m2227 -159 c19 -19 19 -2185 0 -2204
-10 -10 -220 -14 -1075 -16 -584 -1 -1076 0 -1093 3 -22 4 -35 14 -43 33 -8
20 -11 321 -9 1099 3 1059 3 1072 23 1087 18 14 147 15 1102 13 872 -2 1085
-5 1095 -15z"/>
<path d="M505 1986 c-42 -18 -93 -79 -100 -120 -12 -61 14 -110 87 -165 49
-37 129 -20 182 39 60 67 58 146 -7 208 -53 51 -104 63 -162 38z"/>
<path d="M880 1840 l0 -80 640 0 640 0 0 80 0 80 -640 0 -640 0 0 -80z"/>
<path d="M505 1426 c-17 -7 -45 -29 -62 -49 -59 -68 -53 -148 17 -211 69 -63
149 -57 214 14 60 67 58 146 -7 208 -53 51 -104 63 -162 38z"/>
<path d="M880 1280 l0 -80 640 0 640 0 0 80 0 80 -640 0 -640 0 0 -80z"/>
<path d="M510 869 c-38 -15 -88 -68 -101 -106 -16 -49 -3 -98 37 -143 65 -71
145 -77 214 -14 70 63 76 143 18 210 -49 55 -111 75 -168 53z"/>
<path d="M880 720 l0 -80 640 0 640 0 0 80 0 80 -640 0 -640 0 0 -80z"/>
</g>
</svg>
