<?xml version="1.0" standalone="no"?>
<!DOCTYPE svg PUBLIC "-//W3C//DTD SVG 20010904//EN"
 "http://www.w3.org/TR/2001/REC-SVG-20010904/DTD/svg10.dtd">
<svg version="1.0" xmlns="http://www.w3.org/2000/svg"
 width="256.000000pt" height="256.000000pt" viewBox="0 0 256.000000 256.000000"
 preserveAspectRatio="xMidYMid meet">
<metadata>
Created by potrace 1.11, written by Peter Selinger 2001-2013
</metadata>
<g transform="translate(0.000000,256.000000) scale(0.100000,-0.100000)"
fill="#000000" stroke="none">
<path d="M155 2541 c-49 -22 -106 -75 -131 -122 -18 -33 -19 -79 -19 -1139 l0
-1105 24 -40 c28 -46 73 -89 116 -113 27 -16 123 -17 1136 -17 l1105 0 45 29
c49 33 82 67 107 111 16 28 17 118 20 1121 2 1053 2 1093 -17 1135 -21 50 -74
108 -123 136 -31 17 -84 18 -1128 20 -1035 1 -1097 1 -1135 -16z m2227 -159
c19 -19 19 -2185 0 -2204 -10 -10 -220 -14 -1075 -16 -584 -1 -1076 0 -1093 3
-22 4 -35 14 -43 33 -8 20 -11 321 -9 1099 3 1059 3 1072 23 1087 18 14 147
15 1102 13 872 -2 1085 -5 1095 -15z"/>
<path d="M560 1840 l0 -80 720 0 720 0 0 80 0 80 -720 0 -720 0 0 -80z"/>
<path d="M560 1280 l0 -80 720 0 720 0 0 80 0 80 -720 0 -720 0 0 -80z"/>
<path d="M560 720 l0 -80 720 0 720 0 0 80 0 80 -720 0 -720 0 0 -80z"/>
</g>
</svg>
