<?xml version="1.0" standalone="no"?>
<!DOCTYPE svg PUBLIC "-//W3C//DTD SVG 20010904//EN"
 "http://www.w3.org/TR/2001/REC-SVG-20010904/DTD/svg10.dtd">
<svg version="1.0" xmlns="http://www.w3.org/2000/svg"
 width="256.000000pt" height="256.000000pt" viewBox="0 0 256.000000 256.000000"
 preserveAspectRatio="xMidYMid meet">
<metadata>
Created by potrace 1.11, written by Peter Selinger 2001-2013
</metadata>
<g transform="translate(0.000000,256.000000) scale(0.100000,-0.100000)"
fill="#000000" stroke="none">
<path d="M655 2384 c-229 -55 -418 -243 -475 -473 -18 -71 -19 -123 -20 -806
0 -823 -2 -798 71 -872 76 -77 21 -73 1049 -73 1025 0 972 -4 1048 71 75 75
72 43 71 869 -1 822 0 805 -71 948 -82 166 -245 294 -428 336 -93 22 -1154 22
-1245 0z m1270 -173 c113 -45 202 -123 255 -222 59 -112 58 -97 59 -892 l1
-728 -27 -25 -26 -24 -914 2 -914 3 -19 25 c-19 24 -20 49 -19 750 0 597 3
735 15 779 33 125 124 241 233 300 114 60 111 60 731 58 l565 -2 60 -24z"/>
<path d="M1298 2116 c-1 -2 -57 -6 -123 -10 -134 -6 -167 -10 -275 -33 -158
-33 -351 -95 -417 -135 -35 -21 -51 -65 -34 -95 5 -11 67 -77 138 -148 71 -72
163 -175 204 -230 41 -55 86 -105 99 -112 20 -9 42 -7 110 8 204 45 393 43
589 -7 70 -18 102 -3 154 71 55 80 152 191 236 270 140 132 151 144 151 173 0
48 -25 69 -133 110 -194 76 -378 117 -572 128 -55 3 -105 7 -112 9 -6 2 -13 2
-15 1z m-94 -205 c16 -100 148 -90 158 12 2 18 8 31 13 31 6 -1 42 -4 80 -8
39 -3 108 -13 155 -21 47 -8 89 -15 93 -15 5 0 1 -10 -7 -22 -23 -33 -20 -75
9 -103 38 -39 77 -33 134 20 80 74 70 51 -15 -37 -90 -94 -172 -188 -194 -224
-17 -28 -19 -28 -124 -9 -44 8 -83 12 -88 9 -26 -16 3 31 88 144 86 114 95
130 90 160 -3 19 -10 40 -17 48 -18 21 -75 28 -98 12 -16 -11 -168 -208 -275
-354 -1 -1 -30 -4 -66 -8 -36 -3 -89 -10 -119 -16 -29 -5 -57 -10 -62 -10 -4
0 -28 26 -52 58 -47 60 -92 114 -142 167 -96 103 -101 111 -48 62 63 -57 100
-62 139 -20 25 27 29 62 10 104 -6 13 9 19 91 33 112 19 225 34 234 29 4 -1 9
-20 13 -42z"/>
</g>
</svg>
